<?xml version="1.0" standalone="no"?>
<!DOCTYPE svg PUBLIC "-//W3C//DTD SVG 20010904//EN"
 "http://www.w3.org/TR/2001/REC-SVG-20010904/DTD/svg10.dtd">
<svg version="1.0" xmlns="http://www.w3.org/2000/svg"
 width="500.000000pt" height="500.000000pt" viewBox="0 0 500.000000 500.000000"
 preserveAspectRatio="xMidYMid meet">
<metadata>
Created by potrace 1.14, written by Peter Selinger 2001-2017
</metadata>
<g transform="translate(0.000000,500.000000) scale(0.100000,-0.100000)"
fill="#000000" stroke="none">
<path d="M3564 4564 c-78 -33 -117 -130 -268 -664 -15 -52 -29 -104 -31 -115
-26 -117 -144 -414 -213 -534 -23 -39 -40 -71 -38 -71 2 0 28 33 58 73 132
176 204 324 368 757 45 118 89 231 97 250 30 68 78 160 84 160 3 0 23 -17 43
-37 66 -66 121 -201 151 -368 7 -38 7 -153 0 -185 -3 -14 -7 -35 -9 -48 -9
-43 -56 -136 -98 -192 -98 -132 -337 -322 -639 -508 -315 -195 -297 -183 -264
-176 67 15 296 95 392 137 369 162 634 379 719 587 67 165 68 378 4 585 -47
151 -143 300 -217 338 -41 22 -104 27 -139 11z"/>
<path d="M1737 3964 c-1 -1 -40 -4 -87 -8 -120 -9 -151 -14 -275 -46 -608
-156 -1058 -695 -1209 -1445 -22 -113 -29 -155 -42 -265 -3 -25 -7 -115 -8
-200 -4 -156 6 -241 39 -371 95 -367 382 -671 811 -859 84 -37 211 -85 254
-96 8 -2 40 -11 70 -20 120 -35 349 -81 495 -99 28 -4 61 -8 75 -10 25 -4 133
-12 265 -20 198 -13 601 -3 838 20 23 2 71 7 107 10 36 3 76 7 90 9 33 6 96
16 140 21 19 3 49 7 65 9 17 2 89 16 160 31 672 140 1098 411 1249 795 44 113
58 188 61 317 2 126 -7 155 -19 59 -8 -68 -50 -204 -84 -271 -118 -235 -341
-406 -668 -514 -109 -36 -297 -82 -384 -95 -19 -3 -82 -12 -140 -20 -58 -8
-141 -18 -185 -21 -44 -3 -105 -8 -135 -10 -106 -8 -155 -7 -212 4 -32 7 -61
13 -65 13 -26 2 -242 84 -313 119 -296 144 -559 387 -785 724 -109 164 -188
311 -260 491 -69 171 -140 420 -160 557 -3 27 -9 59 -11 70 -3 12 -7 90 -9
172 -5 218 16 333 93 495 62 129 259 310 436 398 65 32 61 39 -28 48 -53 6
-165 11 -169 8z"/>
<path d="M2070 3949 c0 -4 18 -9 40 -11 22 -2 40 -1 40 3 0 4 -18 9 -40 11
-22 2 -40 1 -40 -3z"/>
<path d="M2008 3943 c7 -3 16 -2 19 1 4 3 -2 6 -13 5 -11 0 -14 -3 -6 -6z"/>
<path d="M2160 3941 c0 -5 15 -12 33 -16 68 -14 153 -65 213 -127 151 -156
216 -314 209 -510 -1 -37 1 -65 5 -63 4 3 20 35 36 72 49 119 37 264 -32 387
-68 122 -237 226 -409 252 -22 3 -43 8 -47 10 -5 3 -8 1 -8 -5z"/>
<path d="M3675 3105 c-503 -66 -885 -484 -900 -985 -2 -63 0 -137 4 -165 l7
-50 12 45 c47 171 97 284 176 394 90 124 234 249 369 317 66 34 213 84 272 94
22 4 51 8 65 10 41 7 232 7 275 0 190 -29 366 -108 517 -232 162 -132 262
-284 334 -508 35 -110 35 -110 37 45 2 192 -44 365 -141 530 -213 362 -612
558 -1027 505z"/>
</g>
</svg>
